<mxfile host="app.diagrams.net" agent="Mozilla/5.0 (Windows NT 10.0; Win64; x64) AppleWebKit/537.36 (KHTML, like Gecko) Chrome/136.0.0.0 Safari/537.36" version="27.0.5">
  <diagram name="Σελίδα-1" id="A5_Y5OeSnmOKPh-JDOWM">
    <mxGraphModel dx="1111" dy="507" grid="1" gridSize="10" guides="1" tooltips="1" connect="1" arrows="1" fold="1" page="0" pageScale="1" pageWidth="827" pageHeight="1169" math="0" shadow="0">
      <root>
        <mxCell id="0" />
        <mxCell id="1" parent="0" />
        <mxCell id="wukGIkZhrV3lrMp0Ltz6-7" value="Tenant" style="shape=umlActor;verticalLabelPosition=bottom;verticalAlign=top;html=1;outlineConnect=0;" parent="1" vertex="1">
          <mxGeometry x="125" y="180" width="30" height="60" as="geometry" />
        </mxCell>
        <mxCell id="wukGIkZhrV3lrMp0Ltz6-8" value="Payment" style="ellipse;whiteSpace=wrap;html=1;" parent="1" vertex="1">
          <mxGeometry x="120" y="100" width="130" height="60" as="geometry" />
        </mxCell>
        <mxCell id="wukGIkZhrV3lrMp0Ltz6-9" value="Tenant Home Screen" style="text;html=1;align=center;verticalAlign=middle;whiteSpace=wrap;rounded=0;" parent="1" vertex="1">
          <mxGeometry x="395" y="130" width="125" height="30" as="geometry" />
        </mxCell>
        <mxCell id="wukGIkZhrV3lrMp0Ltz6-10" value="Display" style="ellipse;shape=umlControl;whiteSpace=wrap;html=1;" parent="1" vertex="1">
          <mxGeometry x="945" y="145" width="70" height="80" as="geometry" />
        </mxCell>
        <mxCell id="wukGIkZhrV3lrMp0Ltz6-12" value="" style="shape=umlBoundary;whiteSpace=wrap;html=1;" parent="1" vertex="1">
          <mxGeometry x="385" y="340" width="100" height="80" as="geometry" />
        </mxCell>
        <mxCell id="wukGIkZhrV3lrMp0Ltz6-13" value="Tenant Payment Screen" style="text;html=1;align=center;verticalAlign=middle;whiteSpace=wrap;rounded=0;" parent="1" vertex="1">
          <mxGeometry x="372.5" y="310" width="145" height="30" as="geometry" />
        </mxCell>
        <mxCell id="wukGIkZhrV3lrMp0Ltz6-14" value="" style="endArrow=none;html=1;rounded=0;entryX=0.003;entryY=0.49;entryDx=0;entryDy=0;entryPerimeter=0;exitX=1;exitY=0.3333333333333333;exitDx=0;exitDy=0;exitPerimeter=0;" parent="1" source="wukGIkZhrV3lrMp0Ltz6-7" target="wukGIkZhrV3lrMp0Ltz6-12" edge="1">
          <mxGeometry width="50" height="50" relative="1" as="geometry">
            <mxPoint x="305" y="310" as="sourcePoint" />
            <mxPoint x="355" y="260" as="targetPoint" />
          </mxGeometry>
        </mxCell>
        <mxCell id="wukGIkZhrV3lrMp0Ltz6-15" value="" style="shape=umlBoundary;whiteSpace=wrap;html=1;" parent="1" vertex="1">
          <mxGeometry x="395" y="160" width="100" height="80" as="geometry" />
        </mxCell>
        <mxCell id="wukGIkZhrV3lrMp0Ltz6-16" value="Display" style="ellipse;shape=umlControl;whiteSpace=wrap;html=1;" parent="1" vertex="1">
          <mxGeometry x="675" y="420" width="70" height="80" as="geometry" />
        </mxCell>
        <mxCell id="wukGIkZhrV3lrMp0Ltz6-17" value="" style="shape=umlBoundary;whiteSpace=wrap;html=1;" parent="1" vertex="1">
          <mxGeometry x="385" y="530" width="100" height="80" as="geometry" />
        </mxCell>
        <mxCell id="wukGIkZhrV3lrMp0Ltz6-18" value="Tenant Payment Completion&amp;nbsp;&lt;div&gt;Screen&lt;/div&gt;" style="text;html=1;align=center;verticalAlign=middle;resizable=0;points=[];autosize=1;strokeColor=none;fillColor=none;" parent="1" vertex="1">
          <mxGeometry x="360" y="490" width="180" height="40" as="geometry" />
        </mxCell>
        <mxCell id="wukGIkZhrV3lrMp0Ltz6-19" value="Submit" style="ellipse;shape=umlControl;whiteSpace=wrap;html=1;" parent="1" vertex="1">
          <mxGeometry x="635" y="670" width="70" height="80" as="geometry" />
        </mxCell>
        <mxCell id="wukGIkZhrV3lrMp0Ltz6-22" value="Check Data" style="ellipse;shape=umlControl;whiteSpace=wrap;html=1;" parent="1" vertex="1">
          <mxGeometry x="835" y="670" width="70" height="80" as="geometry" />
        </mxCell>
        <mxCell id="wukGIkZhrV3lrMp0Ltz6-26" value="Correct" style="text;html=1;align=center;verticalAlign=middle;resizable=0;points=[];autosize=1;strokeColor=none;fillColor=none;" parent="1" vertex="1">
          <mxGeometry x="935" y="695" width="60" height="30" as="geometry" />
        </mxCell>
        <mxCell id="wukGIkZhrV3lrMp0Ltz6-27" value="List of Debts" style="ellipse;shape=umlEntity;whiteSpace=wrap;html=1;" parent="1" vertex="1">
          <mxGeometry x="1105" y="470" width="90" height="80" as="geometry" />
        </mxCell>
        <mxCell id="wukGIkZhrV3lrMp0Ltz6-29" value="Wrong" style="text;html=1;align=center;verticalAlign=middle;resizable=0;points=[];autosize=1;strokeColor=none;fillColor=none;rotation=90;" parent="1" vertex="1">
          <mxGeometry x="855" y="780" width="60" height="30" as="geometry" />
        </mxCell>
        <mxCell id="wukGIkZhrV3lrMp0Ltz6-30" value="Error Message" style="ellipse;shape=umlControl;whiteSpace=wrap;html=1;strokeColor=#FF0C00;" parent="1" vertex="1">
          <mxGeometry x="835" y="820" width="70" height="80" as="geometry" />
        </mxCell>
        <mxCell id="wukGIkZhrV3lrMp0Ltz6-33" value="" style="endArrow=none;html=1;rounded=0;entryX=-0.004;entryY=0.515;entryDx=0;entryDy=0;entryPerimeter=0;exitX=1;exitY=0.3333333333333333;exitDx=0;exitDy=0;exitPerimeter=0;" parent="1" source="wukGIkZhrV3lrMp0Ltz6-7" target="wukGIkZhrV3lrMp0Ltz6-17" edge="1">
          <mxGeometry width="50" height="50" relative="1" as="geometry">
            <mxPoint x="285" y="430" as="sourcePoint" />
            <mxPoint x="365" y="390" as="targetPoint" />
          </mxGeometry>
        </mxCell>
        <mxCell id="wukGIkZhrV3lrMp0Ltz6-34" value="Fill the Form and Select Submit" style="text;html=1;align=center;verticalAlign=middle;whiteSpace=wrap;rounded=0;rotation=60;" parent="1" vertex="1">
          <mxGeometry x="156.25" y="370" width="238.75" height="30" as="geometry" />
        </mxCell>
        <mxCell id="wukGIkZhrV3lrMp0Ltz6-35" value="Select Payment" style="text;html=1;align=center;verticalAlign=middle;resizable=0;points=[];autosize=1;strokeColor=none;fillColor=none;rotation=40;" parent="1" vertex="1">
          <mxGeometry x="234.99536959481634" y="280.00367542170784" width="110" height="30" as="geometry" />
        </mxCell>
        <mxCell id="wukGIkZhrV3lrMp0Ltz6-36" value="" style="endArrow=none;html=1;rounded=0;entryX=-0.02;entryY=0.494;entryDx=0;entryDy=0;entryPerimeter=0;exitX=1;exitY=0.3333333333333333;exitDx=0;exitDy=0;exitPerimeter=0;" parent="1" source="wukGIkZhrV3lrMp0Ltz6-7" target="wukGIkZhrV3lrMp0Ltz6-15" edge="1">
          <mxGeometry width="50" height="50" relative="1" as="geometry">
            <mxPoint x="290" y="200" as="sourcePoint" />
            <mxPoint x="340" y="150" as="targetPoint" />
          </mxGeometry>
        </mxCell>
        <mxCell id="wukGIkZhrV3lrMp0Ltz6-37" value="Select Finance" style="text;html=1;align=center;verticalAlign=middle;whiteSpace=wrap;rounded=0;" parent="1" vertex="1">
          <mxGeometry x="215" y="180" width="130" height="30" as="geometry" />
        </mxCell>
        <mxCell id="wukGIkZhrV3lrMp0Ltz6-39" value="" style="shape=umlBoundary;whiteSpace=wrap;html=1;" parent="1" vertex="1">
          <mxGeometry x="385" y="980" width="100" height="80" as="geometry" />
        </mxCell>
        <mxCell id="wukGIkZhrV3lrMp0Ltz6-40" value="Manager Notification Screen" style="text;html=1;align=center;verticalAlign=middle;resizable=0;points=[];autosize=1;strokeColor=none;fillColor=none;" parent="1" vertex="1">
          <mxGeometry x="360" y="950" width="170" height="30" as="geometry" />
        </mxCell>
        <mxCell id="wukGIkZhrV3lrMp0Ltz6-41" value="Notification List" style="ellipse;shape=umlEntity;whiteSpace=wrap;html=1;" parent="1" vertex="1">
          <mxGeometry x="1005" y="1130" width="90" height="80" as="geometry" />
        </mxCell>
        <mxCell id="wukGIkZhrV3lrMp0Ltz6-43" value="Display" style="ellipse;shape=umlControl;whiteSpace=wrap;html=1;" parent="1" vertex="1">
          <mxGeometry x="630" y="970" width="70" height="80" as="geometry" />
        </mxCell>
        <mxCell id="wukGIkZhrV3lrMp0Ltz6-44" value="Load" style="ellipse;shape=umlControl;whiteSpace=wrap;html=1;" parent="1" vertex="1">
          <mxGeometry x="835" y="970" width="70" height="80" as="geometry" />
        </mxCell>
        <mxCell id="wukGIkZhrV3lrMp0Ltz6-46" value="Select Notification" style="text;html=1;align=center;verticalAlign=middle;resizable=0;points=[];autosize=1;strokeColor=none;fillColor=none;rotation=0;" parent="1" vertex="1">
          <mxGeometry x="215" y="1000" width="120" height="30" as="geometry" />
        </mxCell>
        <mxCell id="wukGIkZhrV3lrMp0Ltz6-47" value="Create Announcment" style="ellipse;shape=umlControl;whiteSpace=wrap;html=1;" parent="1" vertex="1">
          <mxGeometry x="1007.5" y="810" width="85" height="80" as="geometry" />
        </mxCell>
        <mxCell id="wukGIkZhrV3lrMp0Ltz6-50" value="Update" style="ellipse;shape=umlControl;whiteSpace=wrap;html=1;" parent="1" vertex="1">
          <mxGeometry x="1015" y="970" width="70" height="80" as="geometry" />
        </mxCell>
        <mxCell id="wukGIkZhrV3lrMp0Ltz6-52" value="Load" style="ellipse;shape=umlControl;whiteSpace=wrap;html=1;" parent="1" vertex="1">
          <mxGeometry x="675" y="160" width="70" height="80" as="geometry" />
        </mxCell>
        <mxCell id="wukGIkZhrV3lrMp0Ltz6-53" value="" style="endArrow=none;html=1;rounded=0;entryX=0.5;entryY=0;entryDx=0;entryDy=0;exitX=0.284;exitY=0.172;exitDx=0;exitDy=0;exitPerimeter=0;" parent="1" source="wukGIkZhrV3lrMp0Ltz6-52" target="wukGIkZhrV3lrMp0Ltz6-27" edge="1">
          <mxGeometry width="50" height="50" relative="1" as="geometry">
            <mxPoint x="695" y="170" as="sourcePoint" />
            <mxPoint x="975" y="413.23" as="targetPoint" />
            <Array as="points">
              <mxPoint x="695" y="130" />
              <mxPoint x="695" y="90" />
              <mxPoint x="1150" y="90" />
            </Array>
          </mxGeometry>
        </mxCell>
        <mxCell id="wukGIkZhrV3lrMp0Ltz6-57" value="Manager" style="shape=umlActor;verticalLabelPosition=bottom;verticalAlign=top;html=1;" parent="1" vertex="1">
          <mxGeometry x="125" y="1000" width="30" height="60" as="geometry" />
        </mxCell>
        <mxCell id="wukGIkZhrV3lrMp0Ltz6-58" value="" style="endArrow=none;html=1;rounded=0;entryX=-0.05;entryY=0.5;entryDx=0;entryDy=0;entryPerimeter=0;exitX=1;exitY=0.3333333333333333;exitDx=0;exitDy=0;exitPerimeter=0;" parent="1" source="wukGIkZhrV3lrMp0Ltz6-57" target="wukGIkZhrV3lrMp0Ltz6-39" edge="1">
          <mxGeometry width="50" height="50" relative="1" as="geometry">
            <mxPoint x="270.32" y="1045" as="sourcePoint" />
            <mxPoint x="320.32" y="995" as="targetPoint" />
          </mxGeometry>
        </mxCell>
        <mxCell id="wukGIkZhrV3lrMp0Ltz6-61" value="Show Confirmation Message" style="ellipse;shape=umlControl;whiteSpace=wrap;html=1;" parent="1" vertex="1">
          <mxGeometry x="1160" y="670" width="90" height="80" as="geometry" />
        </mxCell>
        <mxCell id="wukGIkZhrV3lrMp0Ltz6-64" value="" style="endArrow=none;html=1;rounded=0;exitX=0.99;exitY=0.513;exitDx=0;exitDy=0;exitPerimeter=0;entryX=0.014;entryY=0.5;entryDx=0;entryDy=0;entryPerimeter=0;" parent="1" source="wukGIkZhrV3lrMp0Ltz6-15" target="wukGIkZhrV3lrMp0Ltz6-52" edge="1">
          <mxGeometry width="50" height="50" relative="1" as="geometry">
            <mxPoint x="590" y="250" as="sourcePoint" />
            <mxPoint x="774" y="250" as="targetPoint" />
          </mxGeometry>
        </mxCell>
        <mxCell id="wukGIkZhrV3lrMp0Ltz6-65" value="" style="endArrow=none;html=1;rounded=0;exitX=0.987;exitY=0.456;exitDx=0;exitDy=0;exitPerimeter=0;entryX=0.014;entryY=0.65;entryDx=0;entryDy=0;entryPerimeter=0;" parent="1" source="wukGIkZhrV3lrMp0Ltz6-52" target="wukGIkZhrV3lrMp0Ltz6-10" edge="1">
          <mxGeometry width="50" height="50" relative="1" as="geometry">
            <mxPoint x="810" y="250" as="sourcePoint" />
            <mxPoint x="994" y="250" as="targetPoint" />
          </mxGeometry>
        </mxCell>
        <mxCell id="wukGIkZhrV3lrMp0Ltz6-66" value="" style="endArrow=none;html=1;rounded=0;exitX=0.958;exitY=0.702;exitDx=0;exitDy=0;exitPerimeter=0;entryX=0.008;entryY=0.63;entryDx=0;entryDy=0;entryPerimeter=0;" parent="1" source="wukGIkZhrV3lrMp0Ltz6-12" target="wukGIkZhrV3lrMp0Ltz6-16" edge="1">
          <mxGeometry width="50" height="50" relative="1" as="geometry">
            <mxPoint x="510" y="440" as="sourcePoint" />
            <mxPoint x="694" y="440" as="targetPoint" />
          </mxGeometry>
        </mxCell>
        <mxCell id="wukGIkZhrV3lrMp0Ltz6-67" value="" style="endArrow=none;html=1;rounded=0;exitX=0.996;exitY=0.434;exitDx=0;exitDy=0;exitPerimeter=0;entryX=0.341;entryY=0.97;entryDx=0;entryDy=0;entryPerimeter=0;" parent="1" source="wukGIkZhrV3lrMp0Ltz6-17" target="wukGIkZhrV3lrMp0Ltz6-16" edge="1">
          <mxGeometry width="50" height="50" relative="1" as="geometry">
            <mxPoint x="690" y="530" as="sourcePoint" />
            <mxPoint x="874" y="530" as="targetPoint" />
          </mxGeometry>
        </mxCell>
        <mxCell id="wukGIkZhrV3lrMp0Ltz6-68" value="" style="endArrow=none;html=1;rounded=0;exitX=0.763;exitY=0.946;exitDx=0;exitDy=0;exitPerimeter=0;entryX=-0.005;entryY=0.529;entryDx=0;entryDy=0;entryPerimeter=0;" parent="1" source="wukGIkZhrV3lrMp0Ltz6-17" target="wukGIkZhrV3lrMp0Ltz6-19" edge="1">
          <mxGeometry width="50" height="50" relative="1" as="geometry">
            <mxPoint x="640" y="620" as="sourcePoint" />
            <mxPoint x="824" y="620" as="targetPoint" />
          </mxGeometry>
        </mxCell>
        <mxCell id="wukGIkZhrV3lrMp0Ltz6-69" value="" style="endArrow=none;html=1;rounded=0;exitX=1.001;exitY=0.618;exitDx=0;exitDy=0;exitPerimeter=0;entryX=-0.005;entryY=0.607;entryDx=0;entryDy=0;entryPerimeter=0;" parent="1" source="wukGIkZhrV3lrMp0Ltz6-19" target="wukGIkZhrV3lrMp0Ltz6-22" edge="1">
          <mxGeometry width="50" height="50" relative="1" as="geometry">
            <mxPoint x="770" y="580" as="sourcePoint" />
            <mxPoint x="954" y="580" as="targetPoint" />
          </mxGeometry>
        </mxCell>
        <mxCell id="wukGIkZhrV3lrMp0Ltz6-70" value="" style="endArrow=none;html=1;rounded=0;exitX=0.5;exitY=1;exitDx=0;exitDy=0;exitPerimeter=0;entryX=0.512;entryY=0.136;entryDx=0;entryDy=0;entryPerimeter=0;fillColor=#f8cecc;strokeColor=#FF0C00;" parent="1" source="wukGIkZhrV3lrMp0Ltz6-22" target="wukGIkZhrV3lrMp0Ltz6-30" edge="1">
          <mxGeometry width="50" height="50" relative="1" as="geometry">
            <mxPoint x="950" y="810" as="sourcePoint" />
            <mxPoint x="1134" y="810" as="targetPoint" />
          </mxGeometry>
        </mxCell>
        <mxCell id="wukGIkZhrV3lrMp0Ltz6-71" value="" style="endArrow=none;html=1;rounded=0;exitX=1.001;exitY=0.589;exitDx=0;exitDy=0;exitPerimeter=0;entryX=0.001;entryY=0.589;entryDx=0;entryDy=0;entryPerimeter=0;" parent="1" source="wukGIkZhrV3lrMp0Ltz6-22" edge="1">
          <mxGeometry width="50" height="50" relative="1" as="geometry">
            <mxPoint x="940" y="780" as="sourcePoint" />
            <mxPoint x="1015.095" y="717.12" as="targetPoint" />
          </mxGeometry>
        </mxCell>
        <mxCell id="wukGIkZhrV3lrMp0Ltz6-72" value="Update" style="ellipse;shape=umlControl;whiteSpace=wrap;html=1;" parent="1" vertex="1">
          <mxGeometry x="1015" y="670" width="70" height="80" as="geometry" />
        </mxCell>
        <mxCell id="wukGIkZhrV3lrMp0Ltz6-74" value="" style="endArrow=none;html=1;rounded=0;entryX=0.5;entryY=0.125;entryDx=0;entryDy=0;entryPerimeter=0;" parent="1" target="wukGIkZhrV3lrMp0Ltz6-47" edge="1">
          <mxGeometry width="50" height="50" relative="1" as="geometry">
            <mxPoint x="1050" y="750" as="sourcePoint" />
            <mxPoint x="1250.095" y="760.12" as="targetPoint" />
          </mxGeometry>
        </mxCell>
        <mxCell id="wukGIkZhrV3lrMp0Ltz6-76" value="" style="endArrow=none;html=1;rounded=0;exitX=0.461;exitY=1.017;exitDx=0;exitDy=0;exitPerimeter=0;entryX=0.702;entryY=0.148;entryDx=0;entryDy=0;entryPerimeter=0;" parent="1" source="wukGIkZhrV3lrMp0Ltz6-27" target="wukGIkZhrV3lrMp0Ltz6-72" edge="1">
          <mxGeometry width="50" height="50" relative="1" as="geometry">
            <mxPoint x="1110" y="610" as="sourcePoint" />
            <mxPoint x="1220.095" y="610.12" as="targetPoint" />
          </mxGeometry>
        </mxCell>
        <mxCell id="wukGIkZhrV3lrMp0Ltz6-77" value="" style="endArrow=none;html=1;rounded=0;exitX=0.988;exitY=0.577;exitDx=0;exitDy=0;exitPerimeter=0;" parent="1" source="wukGIkZhrV3lrMp0Ltz6-72" edge="1">
          <mxGeometry width="50" height="50" relative="1" as="geometry">
            <mxPoint x="1130" y="670" as="sourcePoint" />
            <mxPoint x="1160" y="716" as="targetPoint" />
          </mxGeometry>
        </mxCell>
        <mxCell id="wukGIkZhrV3lrMp0Ltz6-78" value="" style="endArrow=none;html=1;rounded=0;exitX=0.478;exitY=1.029;exitDx=0;exitDy=0;exitPerimeter=0;entryX=0.478;entryY=0.113;entryDx=0;entryDy=0;entryPerimeter=0;" parent="1" source="wukGIkZhrV3lrMp0Ltz6-47" target="wukGIkZhrV3lrMp0Ltz6-50" edge="1">
          <mxGeometry width="50" height="50" relative="1" as="geometry">
            <mxPoint x="1060" y="940" as="sourcePoint" />
            <mxPoint x="1060" y="1010" as="targetPoint" />
          </mxGeometry>
        </mxCell>
        <mxCell id="wukGIkZhrV3lrMp0Ltz6-80" value="" style="endArrow=none;html=1;rounded=0;entryX=1.032;entryY=0.577;entryDx=0;entryDy=0;entryPerimeter=0;exitX=0.001;exitY=0.577;exitDx=0;exitDy=0;exitPerimeter=0;" parent="1" source="wukGIkZhrV3lrMp0Ltz6-44" target="wukGIkZhrV3lrMp0Ltz6-43" edge="1">
          <mxGeometry width="50" height="50" relative="1" as="geometry">
            <mxPoint x="820" y="1030" as="sourcePoint" />
            <mxPoint x="820" y="1100" as="targetPoint" />
          </mxGeometry>
        </mxCell>
        <mxCell id="wukGIkZhrV3lrMp0Ltz6-81" value="" style="endArrow=none;html=1;rounded=0;entryX=-0.013;entryY=0.578;entryDx=0;entryDy=0;entryPerimeter=0;exitX=0.998;exitY=0.46;exitDx=0;exitDy=0;exitPerimeter=0;" parent="1" source="wukGIkZhrV3lrMp0Ltz6-39" target="wukGIkZhrV3lrMp0Ltz6-43" edge="1">
          <mxGeometry width="50" height="50" relative="1" as="geometry">
            <mxPoint x="570" y="990" as="sourcePoint" />
            <mxPoint x="570" y="1060" as="targetPoint" />
          </mxGeometry>
        </mxCell>
        <mxCell id="wukGIkZhrV3lrMp0Ltz6-82" value="" style="endArrow=none;html=1;rounded=0;entryX=0.5;entryY=0;entryDx=0;entryDy=0;" parent="1" target="wukGIkZhrV3lrMp0Ltz6-41" edge="1">
          <mxGeometry width="50" height="50" relative="1" as="geometry">
            <mxPoint x="1050" y="1050" as="sourcePoint" />
            <mxPoint x="1060" y="1150" as="targetPoint" />
          </mxGeometry>
        </mxCell>
        <mxCell id="wukGIkZhrV3lrMp0Ltz6-83" value="" style="endArrow=none;html=1;rounded=0;exitX=0.938;exitY=0.224;exitDx=0;exitDy=0;exitPerimeter=0;entryX=0.414;entryY=0.985;entryDx=0;entryDy=0;entryPerimeter=0;" parent="1" source="wukGIkZhrV3lrMp0Ltz6-12" target="wukGIkZhrV3lrMp0Ltz6-10" edge="1">
          <mxGeometry width="50" height="50" relative="1" as="geometry">
            <mxPoint x="620" y="360" as="sourcePoint" />
            <mxPoint x="830" y="270" as="targetPoint" />
          </mxGeometry>
        </mxCell>
        <mxCell id="-_gvTYggydgreFGAt-Xr-6" value="" style="endArrow=none;html=1;rounded=0;entryX=0.905;entryY=0.787;entryDx=0;entryDy=0;entryPerimeter=0;exitX=0;exitY=0.5;exitDx=0;exitDy=0;" parent="1" source="wukGIkZhrV3lrMp0Ltz6-41" target="wukGIkZhrV3lrMp0Ltz6-44" edge="1">
          <mxGeometry width="50" height="50" relative="1" as="geometry">
            <mxPoint x="850" y="1190" as="sourcePoint" />
            <mxPoint x="717" y="1190" as="targetPoint" />
          </mxGeometry>
        </mxCell>
        <mxCell id="-_gvTYggydgreFGAt-Xr-7" value="" style="endArrow=none;html=1;rounded=0;entryX=1;entryY=0.558;entryDx=0;entryDy=0;entryPerimeter=0;exitX=0;exitY=0.558;exitDx=0;exitDy=0;exitPerimeter=0;" parent="1" source="wukGIkZhrV3lrMp0Ltz6-50" target="wukGIkZhrV3lrMp0Ltz6-44" edge="1">
          <mxGeometry width="50" height="50" relative="1" as="geometry">
            <mxPoint x="820" y="1080" as="sourcePoint" />
            <mxPoint x="713" y="943" as="targetPoint" />
          </mxGeometry>
        </mxCell>
      </root>
    </mxGraphModel>
  </diagram>
</mxfile>
